<svg id="Layer_1" data-name="Layer 1" xmlns="http://www.w3.org/2000/svg" viewBox="0 0 70.92 155.87"><defs><style>.cls-1{fill:#bcbcbc;}</style></defs><path class="cls-1" d="M37.89,101.42c-1.17,8.74-.83,17.53-.66,26.3a69.41,69.41,0,0,0,1.33,13.49c.86,4,3.82,4.82,7,5.74,4.3,1.24,8.75.88,13.12,1.41a27.52,27.52,0,0,1,5.7,1.12c.79.26,1.63.58,1.74,1.55s-.71,1.57-1.49,2A19.75,19.75,0,0,1,58,154.71c-3.49.52-7,.63-10.54.81-6,.3-11.9.48-17.84.25-6.86-.28-13.77-.19-20.53-1.73a7.51,7.51,0,0,1-3.62-1.74c-1.2-1.17-1.11-2,.45-2.64a25.42,25.42,0,0,1,5.84-1.29c3.26-.51,6.57-.24,9.85-.67a47.89,47.89,0,0,0,7-1.79c2.92-.84,3.4-3.37,3.91-5.78a64,64,0,0,0,1.12-12.81c0-3.11.08-6.23.22-9.35.18-4.15-.34-8.33-.51-12.5a31.33,31.33,0,0,0-.76-6.82C31.1,93,28.58,88.25,23.33,85A67.71,67.71,0,0,1,9,72.78,34.07,34.07,0,0,1,.54,55.87,41.8,41.8,0,0,1,.23,45C.57,40.47,1,36,1.66,31.5,3.11,21.94,5.6,12.61,7.93,3.25,8.75,0,8.76,0,12.1,0H60.46c1.39,0,1.92.47,2.26,1.8,2.66,10.49,5.26,21,6.92,31.71a87.78,87.78,0,0,1,1.12,20.41C70.24,60.36,67.38,66,63.4,71.05c-4.82,6.14-10.94,10.76-17.3,15.16C40.78,89.81,38.7,95.36,37.89,101.42Z" transform="translate(-0.01)"/></svg>