<svg id="Layer_1" data-name="Layer 1" xmlns="http://www.w3.org/2000/svg" viewBox="0 0 45.41 112.7"><defs><style>.cls-1{fill:#bcbcbc;}</style></defs><path class="cls-1" d="M45.44,109.24c0,1.33-1.37,1.58-2.42,1.94a23.31,23.31,0,0,1-6.79,1c-4.64.16-9.3.81-13.94.38-6-.56-12.13.22-18.13-1a14.23,14.23,0,0,1-3-.91A1.61,1.61,0,0,1,0,109.19c0-.76.69-1,1.33-1.23a30.06,30.06,0,0,1,5.72-1c2.67-.29,5.39-.16,8-.94,5.21-1.53,4.91-1.32,5.68-7.06.83-6.14.43-12.36.34-18.54a24.91,24.91,0,0,0-2.14-11,13,13,0,0,0-6.37-6.06,25.85,25.85,0,0,1-8.7-6.71C1.28,53.51.45,49.58.31,45.65c-.26-7.44.79-14.78,1.9-22.11C3,18.44,3.88,13.35,4.77,8.26c.11-.61.59-1.15.43-1.84.36-1.66.75-3.32,1.07-5A1.46,1.46,0,0,1,7.78,0H37.67a1.35,1.35,0,0,1,1.55,1.12s0,.09,0,.14C41.38,11.66,43.42,22,44.61,32.59a108.78,108.78,0,0,1,.65,13.75,21.72,21.72,0,0,1-2.54,8.9A27.92,27.92,0,0,1,32,63.88c-5,2.46-6.7,7.12-7.24,12.2a129.08,129.08,0,0,0-.35,17.48,37.87,37.87,0,0,0,1,8.74,3.85,3.85,0,0,0,2.4,2.84,21.69,21.69,0,0,0,6.5,1.52c2.93.2,5.89.18,8.74,1C44,108,45.42,107.91,45.44,109.24Z" transform="translate(-0.03)"/></svg>