<svg id="Layer_1" data-name="Layer 1" xmlns="http://www.w3.org/2000/svg" viewBox="0 0 48.13 176.18"><defs><style>.cls-1{fill:#bcbcbc;}</style></defs><path class="cls-1" d="M46.09,174.27a28.53,28.53,0,0,1-7.26,1.4,210.17,210.17,0,0,1-23.68.31c-4.19-.16-8.48-.13-12.54-1.61a4.66,4.66,0,0,1-1.84-1c-1.15-1.19-.9-2.47.68-3,3.32-1.05,6.79-1.3,10.22-1.79,2.46-.36,4.94-.12,7.38-.65a1.73,1.73,0,0,0,1.36-1,15.85,15.85,0,0,0,2-7.24c0-6.56-.1-13.11,0-19.65.17-7.87.48-15.74.25-23.6s-.74-16-4.35-23.42a5.3,5.3,0,0,0-2-2.39C11.85,88,9.09,83.87,7,79.27A43.23,43.23,0,0,1,3.6,64.41,45.76,45.76,0,0,1,3.6,56C4,46.86,5,37.79,5.7,28.71c.41-5,1-10,1.24-15,.2-4.21.92-8.39,1.33-12.59C8.39-.17,9.27,0,10,0H38.47c1.18,0,1.58.32,1.69,1.57.6,6.73,1.36,13.44,2,20.16.45,4.68.79,9.37,1.18,14.06.33,3.69.78,7.37,1,11.07.23,5,1,10.09.73,15.15-.33,6.57-1.41,13-4.46,18.93-1.82,3.55-4.08,6.78-7.55,8.91-2.06,1.27-3,3.2-3.79,5.34a47.32,47.32,0,0,0-3,14.44c-.67,16.75-.1,33.49-.24,50.24a13.39,13.39,0,0,0,2.2,7.18c.85,1.36,2.36,1.1,3.65,1.19A79.88,79.88,0,0,1,45.49,170c.18,0,.35.07.52.12,1,.31,2.11.64,2.17,1.79S47.19,173.87,46.09,174.27Z" transform="translate(-0.06 0.01)"/></svg>