<svg id="Layer_1" data-name="Layer 1" xmlns="http://www.w3.org/2000/svg" viewBox="0 0 71.33 184.56"><defs><style>.cls-1{fill:#bcbcbc;}</style></defs><path class="cls-1" d="M37.63,119.13c-.68,11.67-.4,23.35-.25,35a91.11,91.11,0,0,0,1.09,14c.73,4.33,3.1,6.23,7,7.24s7.56,1,11.36,1.35a44.09,44.09,0,0,1,7.84,1.12c1,.28,2.21.44,2.31,1.82s-1,1.63-1.86,2.08c-3,1.55-6.35,1.75-9.61,2a223,223,0,0,1-26.49.7c-6.8-.25-13.65-.13-20.35-1.71a7.73,7.73,0,0,1-4.06-2c-.88-.92-.72-1.6.28-2.29a7.17,7.17,0,0,1,2.83-1,70,70,0,0,1,11-1.08A34.38,34.38,0,0,0,29,174.14a4.75,4.75,0,0,0,2.91-3.34,34.46,34.46,0,0,0,1.37-8c.75-11,.19-22.05.42-33.07a80.06,80.06,0,0,0-1.2-17,20.72,20.72,0,0,0-5.06-10.53c-1.59-1.65-4-2.2-6-3.33-6.39-3.62-12-8.07-16-14.34a34.56,34.56,0,0,1-5.5-18A160.82,160.82,0,0,1,.46,49.81c.51-5.85,1.06-11.7,2-17.5C3.2,27.68,3.9,23,4.62,18.39,5.73,12.68,6.86,7,7.94,1.23,8.18-.09,9.1,0,10.06,0H61.22c1.08,0,1.67.2,1.93,1.46C65.72,14.09,68,26.77,69.53,39.58a210.39,210.39,0,0,1,1.73,24.06,60.62,60.62,0,0,1-1.12,11c-1.26,3-2.2,6.09-4,8.83C61,91.47,53.78,97,45.25,100.84a7.3,7.3,0,0,0-3,2.8C39.12,108.38,37.93,113.64,37.63,119.13Z" transform="translate(0.07)"/></svg>