<svg id="Layer_1" data-name="Layer 1" xmlns="http://www.w3.org/2000/svg" viewBox="0 0 59.44 161.5"><defs><style>.cls-1{fill:#bcbcbc;}</style></defs><path class="cls-1" d="M59.44,156.73c0,1.15-.89,1.77-1.81,2.2-2.71,1.29-5.68,1.44-8.59,1.79-4.63.55-9.31.22-13.95.46-3.3.17-6.59.35-9.89.25-4.64-.14-9.27-.51-13.91-.65A30.91,30.91,0,0,1,2.07,159a4.06,4.06,0,0,1-.65-.27c-.76-.49-1.54-1-1.4-2.06s.94-1.32,1.74-1.54A34.11,34.11,0,0,1,9.07,154a61.8,61.8,0,0,0,10.33-1.1,6.31,6.31,0,0,1,.86-.2c5-.64,6.55-4.17,7-8.57.28-3.21.67-6.44.7-9.66q.14-17,0-34c-.07-6.75-1.32-13.23-5.47-18.83a60,60,0,0,0-5.17-5.52,81.42,81.42,0,0,1-8.34-10A51.43,51.43,0,0,1,1.15,50.4C-.37,44.74,0,39,.6,33.24c1.12-9.69,3.75-19,6.82-28.12C9.13,0,9.12,0,14.49,0H48.3a2.06,2.06,0,0,1,2.42,1.51,161.61,161.61,0,0,1,7.76,29A74.26,74.26,0,0,1,59.12,45a32.1,32.1,0,0,1-3.5,12.3,66.61,66.61,0,0,1-14.5,19.65,33.77,33.77,0,0,0-7.11,10,28,28,0,0,0-2.45,12q-.24,18.77,0,37.54A46.65,46.65,0,0,0,33,148a5.44,5.44,0,0,0,3.65,3.94c4.2,1.62,8.6,1.84,13,2.09a39.89,39.89,0,0,1,7.84,1.08C58.29,155.31,59.45,155.47,59.44,156.73Z" transform="translate(0 0.04)"/></svg>