<svg id="Layer_1" data-name="Layer 1" xmlns="http://www.w3.org/2000/svg" viewBox="0 0 53.19 158.75"><defs><style>.cls-1{fill:#bcbcbc;}</style></defs><path class="cls-1" d="M52.78,154.71a1.83,1.83,0,0,1-1.38,1.82,20.23,20.23,0,0,1-4.73,1.4,74.18,74.18,0,0,1-7.74.41c-4.06.07-8.11.4-12.18.41-5.05,0-10.08-.35-15.13-.38A27.34,27.34,0,0,1,2.83,157a5.31,5.31,0,0,1-1.55-.8c-1.28-1-1.14-2.08.38-2.63a36.43,36.43,0,0,1,5.85-1.23c2.74-.52,5.55,0,8.25-.7,1.88-.48,3.76-1,5.58-1.63a3.58,3.58,0,0,0,2.2-2.39,28.18,28.18,0,0,0,1.28-7.45c.52-14.32.46-28.65.34-43a67.18,67.18,0,0,0-.82-11.06c-1-5.86-4.24-10.3-9.24-13.79C7,66.61,1.42,59,.21,48.9a42.91,42.91,0,0,1,0-8.48A172,172,0,0,1,3.6,16.94c.37-1.72.68-3.45,1-5.18C5.42,8.51,6.34,5.29,7,2,7.34.38,8.1,0,9.64,0,17.75.09,25.87,0,34,0c3.36,0,6.72.09,10.08,0A1.7,1.7,0,0,1,46,1.45a.28.28,0,0,0,0,.09A244.21,244.21,0,0,1,52,30a109.14,109.14,0,0,1,1.19,15.64,29.83,29.83,0,0,1-6.15,18C44,67.78,40,70.9,36,73.94,31.48,77.3,29.24,82,28.72,87.52c-1.28,13.59-.72,27.21-.58,40.81.06,5.5-.16,11.06.88,16.54.58,3,1.87,5.06,5,5.83a33.3,33.3,0,0,0,7.63,1.23,35.21,35.21,0,0,1,9.4,1.38C51.84,153.62,52.68,153.76,52.78,154.71Z"/></svg>